<svg xmlns="http://www.w3.org/2000/svg" viewBox="0 0 512 512">
  <rect width="512" height="512" rx="96" fill="#C6613F"/>
  <g transform="translate(128, 128)">
    <path d="M128 0 C57.3 0 0 57.3 0 128 C0 198.7 57.3 256 128 256 C198.7 256 256 198.7 256 128 C256 57.3 198.7 0 128 0 Z M128 48 C172.2 48 208 83.8 208 128 C208 172.2 172.2 208 128 208 C83.8 208 48 172.2 48 128 C48 83.8 83.8 48 128 48 Z" fill="rgba(255,255,255,0.2)"/>
    <path d="M80 96 L128 56 L176 96 L160 96 L160 200 L96 200 L96 96 Z" fill="white" transform="translate(0, -8)"/>
    <rect x="96" y="160" width="64" height="48" rx="4" fill="rgba(255,255,255,0.6)"/>
    <path d="M60 140 L196 140 L196 148 C196 152 193 155 189 155 L67 155 C63 155 60 152 60 148 Z" fill="white"/>
  </g>
</svg>
